<mxfile host="app.diagrams.net" modified="2021-05-25T23:01:15.138Z" agent="5.0 (Windows NT 6.1; WOW64) AppleWebKit/537.36 (KHTML, like Gecko) Chrome/90.0.4430.212 Safari/537.36" etag="HEpZpAAQWPdF5PUrIuzo" version="14.7.0" type="github">
  <diagram id="ByxdQv01FH3hduXMIimx" name="Page-1">
    <mxGraphModel dx="868" dy="450" grid="1" gridSize="10" guides="1" tooltips="1" connect="1" arrows="1" fold="1" page="1" pageScale="1" pageWidth="827" pageHeight="1169" math="0" shadow="0">
      <root>
        <mxCell id="0" />
        <mxCell id="1" parent="0" />
        <mxCell id="FeguNmkRzYxuA2Knqo-W-4" style="edgeStyle=orthogonalEdgeStyle;rounded=0;orthogonalLoop=1;jettySize=auto;html=1;exitX=0.5;exitY=1;exitDx=0;exitDy=0;entryX=0.453;entryY=-0.033;entryDx=0;entryDy=0;entryPerimeter=0;" edge="1" parent="1" source="FeguNmkRzYxuA2Knqo-W-1" target="FeguNmkRzYxuA2Knqo-W-2">
          <mxGeometry relative="1" as="geometry" />
        </mxCell>
        <mxCell id="FeguNmkRzYxuA2Knqo-W-1" value="start" style="ellipse;whiteSpace=wrap;html=1;" vertex="1" parent="1">
          <mxGeometry x="40" y="10" width="120" height="80" as="geometry" />
        </mxCell>
        <mxCell id="FeguNmkRzYxuA2Knqo-W-5" style="edgeStyle=orthogonalEdgeStyle;rounded=0;orthogonalLoop=1;jettySize=auto;html=1;exitX=0.5;exitY=1;exitDx=0;exitDy=0;entryX=0.5;entryY=0;entryDx=0;entryDy=0;" edge="1" parent="1" source="FeguNmkRzYxuA2Knqo-W-2" target="FeguNmkRzYxuA2Knqo-W-3">
          <mxGeometry relative="1" as="geometry" />
        </mxCell>
        <mxCell id="FeguNmkRzYxuA2Knqo-W-2" value="nums=[32,27,96,108,221,12]&lt;br&gt;count = 0&lt;br&gt;i = 0" style="shape=parallelogram;perimeter=parallelogramPerimeter;whiteSpace=wrap;html=1;fixedSize=1;" vertex="1" parent="1">
          <mxGeometry x="30" y="130" width="150" height="90" as="geometry" />
        </mxCell>
        <mxCell id="FeguNmkRzYxuA2Knqo-W-7" style="edgeStyle=orthogonalEdgeStyle;rounded=0;orthogonalLoop=1;jettySize=auto;html=1;entryX=0.5;entryY=0;entryDx=0;entryDy=0;" edge="1" parent="1" source="FeguNmkRzYxuA2Knqo-W-3" target="FeguNmkRzYxuA2Knqo-W-6">
          <mxGeometry relative="1" as="geometry" />
        </mxCell>
        <mxCell id="FeguNmkRzYxuA2Knqo-W-18" style="edgeStyle=orthogonalEdgeStyle;rounded=0;orthogonalLoop=1;jettySize=auto;html=1;exitX=1;exitY=0.5;exitDx=0;exitDy=0;" edge="1" parent="1" source="FeguNmkRzYxuA2Knqo-W-3">
          <mxGeometry relative="1" as="geometry">
            <mxPoint x="330" y="330" as="targetPoint" />
          </mxGeometry>
        </mxCell>
        <mxCell id="FeguNmkRzYxuA2Knqo-W-3" value="i &amp;lt;&amp;nbsp; nums.length" style="rhombus;whiteSpace=wrap;html=1;" vertex="1" parent="1">
          <mxGeometry x="45" y="280" width="120" height="100" as="geometry" />
        </mxCell>
        <mxCell id="FeguNmkRzYxuA2Knqo-W-39" style="edgeStyle=orthogonalEdgeStyle;rounded=0;orthogonalLoop=1;jettySize=auto;html=1;exitX=0.5;exitY=1;exitDx=0;exitDy=0;entryX=0.5;entryY=0;entryDx=0;entryDy=0;" edge="1" parent="1" source="FeguNmkRzYxuA2Knqo-W-6" target="FeguNmkRzYxuA2Knqo-W-37">
          <mxGeometry relative="1" as="geometry" />
        </mxCell>
        <mxCell id="FeguNmkRzYxuA2Knqo-W-6" value="print count" style="shape=parallelogram;perimeter=parallelogramPerimeter;whiteSpace=wrap;html=1;fixedSize=1;" vertex="1" parent="1">
          <mxGeometry x="45" y="430" width="120" height="60" as="geometry" />
        </mxCell>
        <mxCell id="FeguNmkRzYxuA2Knqo-W-8" value="false" style="text;html=1;align=center;verticalAlign=middle;resizable=0;points=[];autosize=1;strokeColor=none;" vertex="1" parent="1">
          <mxGeometry x="60" y="390" width="40" height="20" as="geometry" />
        </mxCell>
        <mxCell id="FeguNmkRzYxuA2Knqo-W-25" style="edgeStyle=orthogonalEdgeStyle;rounded=0;orthogonalLoop=1;jettySize=auto;html=1;entryX=0.6;entryY=1.017;entryDx=0;entryDy=0;entryPerimeter=0;" edge="1" parent="1" source="FeguNmkRzYxuA2Knqo-W-9" target="FeguNmkRzYxuA2Knqo-W-12">
          <mxGeometry relative="1" as="geometry" />
        </mxCell>
        <mxCell id="FeguNmkRzYxuA2Knqo-W-28" style="edgeStyle=orthogonalEdgeStyle;rounded=0;orthogonalLoop=1;jettySize=auto;html=1;exitX=0.5;exitY=0;exitDx=0;exitDy=0;entryX=0.333;entryY=1.017;entryDx=0;entryDy=0;entryPerimeter=0;" edge="1" parent="1" source="FeguNmkRzYxuA2Knqo-W-9" target="FeguNmkRzYxuA2Knqo-W-24">
          <mxGeometry relative="1" as="geometry" />
        </mxCell>
        <mxCell id="FeguNmkRzYxuA2Knqo-W-9" value="num[i]%2==0&lt;br&gt;" style="rhombus;whiteSpace=wrap;html=1;" vertex="1" parent="1">
          <mxGeometry x="330" y="280" width="100" height="100" as="geometry" />
        </mxCell>
        <mxCell id="FeguNmkRzYxuA2Knqo-W-27" style="edgeStyle=orthogonalEdgeStyle;rounded=0;orthogonalLoop=1;jettySize=auto;html=1;entryX=1;entryY=0.5;entryDx=0;entryDy=0;" edge="1" parent="1" source="FeguNmkRzYxuA2Knqo-W-12" target="FeguNmkRzYxuA2Knqo-W-24">
          <mxGeometry relative="1" as="geometry" />
        </mxCell>
        <mxCell id="FeguNmkRzYxuA2Knqo-W-12" value="count = count + 1&lt;br&gt;" style="rounded=0;whiteSpace=wrap;html=1;" vertex="1" parent="1">
          <mxGeometry x="460" y="160" width="120" height="60" as="geometry" />
        </mxCell>
        <mxCell id="FeguNmkRzYxuA2Knqo-W-21" value="true" style="text;html=1;align=center;verticalAlign=middle;resizable=0;points=[];autosize=1;strokeColor=none;" vertex="1" parent="1">
          <mxGeometry x="190" y="300" width="40" height="20" as="geometry" />
        </mxCell>
        <mxCell id="FeguNmkRzYxuA2Knqo-W-36" style="edgeStyle=orthogonalEdgeStyle;rounded=0;orthogonalLoop=1;jettySize=auto;html=1;exitX=0;exitY=0.75;exitDx=0;exitDy=0;" edge="1" parent="1" source="FeguNmkRzYxuA2Knqo-W-24">
          <mxGeometry relative="1" as="geometry">
            <mxPoint x="100" y="260" as="targetPoint" />
            <Array as="points">
              <mxPoint x="260" y="260" />
            </Array>
          </mxGeometry>
        </mxCell>
        <mxCell id="FeguNmkRzYxuA2Knqo-W-24" value="i++" style="rounded=0;whiteSpace=wrap;html=1;" vertex="1" parent="1">
          <mxGeometry x="260" y="160" width="120" height="60" as="geometry" />
        </mxCell>
        <mxCell id="FeguNmkRzYxuA2Knqo-W-26" value="true" style="text;html=1;align=center;verticalAlign=middle;resizable=0;points=[];autosize=1;strokeColor=none;" vertex="1" parent="1">
          <mxGeometry x="430" y="300" width="40" height="20" as="geometry" />
        </mxCell>
        <mxCell id="FeguNmkRzYxuA2Knqo-W-29" value="false" style="text;html=1;align=center;verticalAlign=middle;resizable=0;points=[];autosize=1;strokeColor=none;" vertex="1" parent="1">
          <mxGeometry x="310" y="230" width="40" height="20" as="geometry" />
        </mxCell>
        <mxCell id="FeguNmkRzYxuA2Knqo-W-37" value="end" style="ellipse;whiteSpace=wrap;html=1;" vertex="1" parent="1">
          <mxGeometry x="45" y="570" width="120" height="80" as="geometry" />
        </mxCell>
      </root>
    </mxGraphModel>
  </diagram>
</mxfile>
